
<svg xmlns="http://www.w3.org/2000/svg" viewBox="0 0 512 512">
  <defs>
    <linearGradient id="xeroxGrad" x1="0%" y1="0%" x2="100%" y2="100%">
      <stop offset="0%" stop-color="#3ea6ff" />
      <stop offset="100%" stop-color="#ff0033" />
    </linearGradient>
    <filter id="glow" x="-20%" y="-20%" width="140%" height="140%">
      <feGaussianBlur stdDeviation="15" result="blur" />
      <feComposite in="SourceGraphic" in2="blur" operator="over" />
    </filter>
  </defs>

  <!-- Background (Dark) -->
  <rect x="0" y="0" width="512" height="512" fill="#0f0f0f" />

  <!-- YouTube Shape Outline -->
  <path d="M465,108.6c-5.4-20.2-21.3-36.1-41.5-41.5C387,57,256,57,256,57S125,57,88.5,67.1C68.3,72.5,52.4,88.4,47,108.6
    C37,145.1,37,256,37,256s0,110.9,10,147.4c5.4,20.2,21.3,36.1,41.5,41.5c36.5,10.1,167.5,10.1,167.5,10.1s131,0,167.5-10.1
    c20.2-5.4,36.1-21.3,41.5-41.5c10-36.5,10-147.4,10-147.4S475,145.1,465,108.6z" 
    fill="none" stroke="url(#xeroxGrad)" stroke-width="32" stroke-linecap="round" stroke-linejoin="round" />

  <!-- Play Button -->
  <path d="M205,160l130,96l-130,96V160z" fill="#ffffff" />
</svg>
